<?xml version='1.0' encoding='UTF-8'?>
<svg x="0px" y="0px" viewBox="0 0 32 32" version="1.1" xmlns="http://www.w3.org/2000/svg" xmlns:xlink="http://www.w3.org/1999/xlink" xml:space="preserve" id="Layer_1" style="enable-background:new 0 0 32 32">
  <style type="text/css">
	.Yellow{fill:#FFB115;}
	.Red{fill:#D11C1C;}
	.Blue{fill:#1177D7;}
	.Green{fill:#039C23;}
	.Black{fill:#727272;}
	.White{fill:#FFFFFF;}
	.st0{opacity:0.5;}
	.st1{display:none;}
	.st2{display:inline;fill:#039C23;}
	.st3{display:inline;fill:#D11C1C;}
	.st4{display:inline;fill:#727272;}
</style>
  <g id="Cut">
    <path d="M16.4,11.6L26,2l-5.8,13.3L16.4,11.6z M12,23c0,2.8-2.2,5-5,5s-5-2.2-5-5s2.2-5,5-5S12,20.2,12,23z M10,23   c0-1.7-1.3-3-3-3s-3,1.3-3,3s1.3,3,3,3S10,24.7,10,23z M28,23c0,2.8-2.2,5-5,5s-5-2.2-5-5c0-0.9,0.2-1.7,0.6-2.4L16,18h-5L4,2   l16.6,16.6c0.7-0.4,1.5-0.6,2.4-0.6C25.8,18,28,20.2,28,23z M26,23c0-1.7-1.3-3-3-3s-3,1.3-3,3s1.3,3,3,3S26,24.7,26,23z" class="Black" />
  </g>
</svg>