<?xml version='1.0' encoding='UTF-8'?>
<svg x="0px" y="0px" viewBox="0 0 32 32" version="1.1" xmlns="http://www.w3.org/2000/svg" xmlns:xlink="http://www.w3.org/1999/xlink" xml:space="preserve" id="Layer_1" style="enable-background:new 0 0 32 32">
  <style type="text/css">
	.Black{fill:#727272;}
</style>
  <g id="Volume_2_">
    <path d="M3,10h7l6-6v24l-6-6H3c-0.6,0-1-0.4-1-1V11C2,10.4,2.4,10,3,10z" id="Volume_3_" class="Black" />
    <path d="M28,16c0,3.3-1.3,6.3-3.5,8.5l1.4,1.4c2.5-2.5,4.1-6,4.1-9.9c0-3.9-1.6-7.4-4.1-9.9l-1.4,1.4   C26.7,9.7,28,12.7,28,16z" class="Black" />
    <path d="M23.1,8.9l-1.4,1.4c1.4,1.4,2.3,3.4,2.3,5.7c0,2.2-0.9,4.2-2.3,5.7l1.4,1.4c1.8-1.8,2.9-4.3,2.9-7.1   C26,13.2,24.9,10.7,23.1,8.9z" class="Black" />
    <path d="M20.2,11.8l-1.4,1.4c0.7,0.7,1.2,1.7,1.2,2.8c0,1.1-0.4,2.1-1.2,2.8l1.4,1.4c1.1-1.1,1.8-2.6,1.8-4.2   S21.3,12.8,20.2,11.8z" class="Black" />
  </g>
</svg>