<?xml version='1.0' encoding='UTF-8'?>
<svg x="0px" y="0px" viewBox="0 0 32 32" version="1.1" xmlns="http://www.w3.org/2000/svg" xmlns:xlink="http://www.w3.org/1999/xlink" xml:space="preserve" id="Layer_1" style="enable-background:new 0 0 32 32">
  <style type="text/css">
	.Green{fill:#039C23;}
	.Black{fill:#727272;}
	.Red{fill:#D11C1C;}
	.Yellow{fill:#FFB115;}
	.Blue{fill:#1177D7;}
	.White{fill:#FFFFFF;}
	.st0{opacity:0.5;}
	.st1{opacity:0.75;}
</style>
  <g id="EnableSearch">
    <path d="M14.5,17.8C10.8,17.1,8,13.9,8,10c0-4.4,3.6-8,8-8s8,3.6,8,8c0,1.5-0.4,2.8-1.1,4c0,0,0.1,0,0.1,0   c0.7,0,1.4,0.1,2.1,0.2c0.6-1.3,0.9-2.7,0.9-4.2c0-5.5-4.5-10-10-10C10.5,0,6,4.5,6,10c0,2.1,0.7,4.1,1.8,5.7l-7.5,7.6   c-0.4,0.3-0.4,0.9,0,1.3l1.2,1.2c0.3,0.3,0.9,0.3,1.2,0l7.6-7.6c0.9,0.6,1.9,1.1,2.9,1.4C13.6,19,14,18.4,14.5,17.8z" class="Blue" />
    <path d="M23,16c-4.4,0-8.1,3-9,7c0.9,4,4.6,7,9,7c4.4,0,8.1-3,9-7C31.1,19,27.4,16,23,16z M23,28c-3.3,0-6.1-2-7-5   c0.9-3,3.7-5,7-5s6.1,2,7,5C29.1,26,26.3,28,23,28z M23,26c-1.7,0-3-1.3-3-3s1.3-3,3-3s3,1.3,3,3S24.7,26,23,26z" class="Black" />
  </g>
</svg>