<?xml version="1.0" encoding="iso-8859-1"?>
<!-- Generator: Adobe Illustrator 19.0.0, SVG Export Plug-In . SVG Version: 6.00 Build 0)  -->
<svg version="1.1" id="Layer_1" xmlns="http://www.w3.org/2000/svg" xmlns:xlink="http://www.w3.org/1999/xlink" x="0px" y="0px"
	 viewBox="0 0 512 512" style="enable-background:new 0 0 512 512;" xml:space="preserve">
<path d="M256,82.752c-95.52,0-173.248,77.712-173.248,173.248S160.48,429.248,256,429.248c95.536,0,173.248-77.712,173.248-173.248
	S351.52,82.752,256,82.752z M273.632,152.096l-4.4,151.296h-21.44l-4.4-151.296H273.632z M258.512,368
	c-11.024,0-18.592-8.512-18.592-19.552c0-11.344,7.872-19.536,18.592-19.536c11.344,0,18.592,8.192,18.592,19.536
	C277.104,359.488,269.856,368,258.512,368z"/>
<path d="M256,0C114.608,0,0,114.608,0,256s114.608,256,256,256s256-114.608,256-256S397.392,0,256,0z M256,453.248
	c-108.928,0-197.248-88.32-197.248-197.248S147.072,58.752,256,58.752c108.944,0,197.248,88.304,197.248,197.248
	S364.944,453.248,256,453.248z"/>
<path style="fill:#ED1C24;" d="M256,58.752c-108.928,0-197.248,88.32-197.248,197.248S147.072,453.248,256,453.248
	c108.944,0,197.248-88.304,197.248-197.248S364.944,58.752,256,58.752z M256,429.248c-95.52,0-173.248-77.712-173.248-173.248
	S160.48,82.752,256,82.752c95.536,0,173.248,77.712,173.248,173.248S351.52,429.248,256,429.248z"/>
<g>
	<path style="fill:#FFFFFF;" d="M258.512,328.928c-10.72,0-18.592,8.192-18.592,19.536c0,11.024,7.568,19.552,18.592,19.552
		c11.344,0,18.592-8.512,18.592-19.552C277.104,337.104,269.856,328.928,258.512,328.928z"/>
	<polygon style="fill:#FFFFFF;" points="269.232,303.392 273.632,152.096 243.392,152.096 247.792,303.392 	"/>
</g>
<g>
</g>
<g>
</g>
<g>
</g>
<g>
</g>
<g>
</g>
<g>
</g>
<g>
</g>
<g>
</g>
<g>
</g>
<g>
</g>
<g>
</g>
<g>
</g>
<g>
</g>
<g>
</g>
<g>
</g>
</svg>
