<?xml version='1.0' encoding='UTF-8'?>
<svg x="0px" y="0px" viewBox="0 0 32 32" version="1.1" xmlns="http://www.w3.org/2000/svg" xmlns:xlink="http://www.w3.org/1999/xlink" xml:space="preserve" id="Information" style="enable-background:new 0 0 32 32">
  <style type="text/css">
	.Yellow{fill:#FFB115;}
	.Blue{fill:#1177D7;}
</style>
  <path d="M21,14c-5,0-9,4-9,9c0,5,4,9,9,9s9-4,9-9C30,18,26,14,21,14z M22,28h-2v-6h2V28z M22,20h-2v-2h2V20z" class="Blue" />
  <path d="M10,23c0-6.1,4.9-11,11-11c0.3,0,0.7,0,1,0.1V4H3C2.4,4,2,3.6,2,3c0-0.6,0.4-1,1-1h19V1c0-0.6-0.4-1-1-1H3  C1.3,0,0,1.3,0,3v20c0,1.7,1.3,3,3,3h7.4C10.2,25,10,24,10,23z" class="Yellow" />
</svg>