<?xml version='1.0' encoding='UTF-8'?>
<svg x="0px" y="0px" viewBox="0 0 32 32" version="1.1" xmlns="http://www.w3.org/2000/svg" xmlns:xlink="http://www.w3.org/1999/xlink" xml:space="preserve" id="Layer_1" style="enable-background:new 0 0 32 32">
  <style type="text/css">
	.Black{fill:#727272;}
	.Yellow{fill:#FFB115;}
	.Blue{fill:#1177D7;}
	.Red{fill:#D11C1C;}
	.White{fill:#FFFFFF;}
	.Green{fill:#039C23;}
	.st0{fill:#727272;}
	.st1{opacity:0.5;}
	.st2{opacity:0.75;}
</style>
  <g id="Video">
    <g>
      <path d="M24,14V8c0-1.1-0.9-2-2-2H4C2.9,6,2,6.9,2,8v16c0,1.1,0.9,2,2,2h18c1.1,0,2-0.9,2-2v-6l6,6V8L24,14z" class="Black" />
    </g>
    <g>
      <path d="M24,14V8c0-1.1-0.9-2-2-2H4C2.9,6,2,6.9,2,8v16c0,1.1,0.9,2,2,2h18c1.1,0,2-0.9,2-2v-6l6,6V8L24,14z" class="Black" />
    </g>
  </g>
</svg>