<?xml version='1.0' encoding='UTF-8'?>
<svg x="0px" y="0px" viewBox="0 0 32 32" version="1.1" xmlns="http://www.w3.org/2000/svg" xmlns:xlink="http://www.w3.org/1999/xlink" xml:space="preserve" id="Layer_1" style="enable-background:new 0 0 32 32">
  <style type="text/css">
	.Yellow{fill:#FFB115;}
	.Red{fill:#D11C1C;}
	.Blue{fill:#1177D7;}
	.Green{fill:#039C23;}
	.Black{fill:#727272;}
	.White{fill:#FFFFFF;}
	.st0{opacity:0.5;}
	.st1{display:none;}
	.st2{display:inline;fill:#039C23;}
	.st3{display:inline;fill:#D11C1C;}
	.st4{display:inline;fill:#727272;}
</style>
  <g id="ListNumbers">
    <path d="M30,8H12V6h18V8z M30,18H12v-2h18V18z M30,28H12v-2h18V28z" class="Black" />
    <path d="M8,18.6V20H2.2c0-0.5,0.1-0.9,0.2-1.2s0.3-0.6,0.5-0.9c0.2-0.3,0.5-0.5,0.8-0.7c0.3-0.2,0.6-0.5,1-0.7   c0.2-0.1,0.4-0.2,0.5-0.4c0.2-0.1,0.4-0.3,0.5-0.4c0.2-0.1,0.3-0.3,0.4-0.5c0.1-0.2,0.2-0.4,0.2-0.6c0-0.4-0.1-0.7-0.3-0.9   c-0.2-0.2-0.5-0.3-0.8-0.3c-0.2,0-0.4,0.1-0.6,0.2c-0.2,0.1-0.3,0.3-0.4,0.4C4.1,14.1,4,14.3,4,14.5c0,0.2-0.1,0.4-0.1,0.6l0,0H2.4   l0,0c0-0.4,0-0.9,0.2-1.2c0.1-0.4,0.3-0.7,0.5-1c0.2-0.3,0.5-0.5,0.9-0.7C4.4,12.1,4.8,12,5.3,12c0.4,0,0.7,0.1,1,0.2   c0.3,0.1,0.6,0.3,0.9,0.5c0.2,0.2,0.4,0.5,0.6,0.8c0.1,0.3,0.2,0.6,0.2,1c0,0.4-0.1,0.7-0.2,1c-0.1,0.3-0.3,0.5-0.5,0.8   c-0.2,0.2-0.4,0.4-0.7,0.6C6.3,17,6,17.2,5.7,17.4S5.2,17.7,5,17.9s-0.5,0.4-0.7,0.7H8z M4.6,25.3v1.1c0.2,0,0.4,0,0.6,0   s0.4,0.1,0.6,0.1c0.2,0.1,0.3,0.2,0.4,0.3c0.1,0.2,0.2,0.4,0.2,0.7c0,0.4-0.1,0.7-0.4,0.9c-0.2,0.2-0.5,0.3-0.9,0.3   c-0.2,0-0.4,0-0.6-0.1s-0.3-0.2-0.4-0.3C4,28.1,3.9,28,3.9,27.8s-0.1-0.4-0.1-0.6H2.3c0,0.4,0.1,0.8,0.2,1.2S2.8,29,3,29.3   s0.6,0.4,0.9,0.5C4.3,29.9,4.7,30,5.1,30c0.4,0,0.7-0.1,1.1-0.2c0.3-0.1,0.6-0.3,0.9-0.5c0.3-0.2,0.5-0.5,0.6-0.8   C7.9,28.2,8,27.9,8,27.5c0-0.4-0.1-0.8-0.4-1.1c-0.2-0.3-0.6-0.5-1-0.6v0c0.4-0.1,0.6-0.3,0.8-0.6c0.2-0.3,0.3-0.6,0.3-1   c0-0.3-0.1-0.6-0.2-0.9c-0.2-0.3-0.4-0.5-0.6-0.7c-0.2-0.2-0.5-0.3-0.8-0.4C5.7,22,5.4,22,5.1,22c-0.4,0-0.8,0.1-1.1,0.2   c-0.3,0.1-0.6,0.3-0.8,0.5C3,23,2.8,23.3,2.7,23.6c-0.1,0.3-0.2,0.7-0.2,1.1H4c0-0.4,0.1-0.7,0.3-1c0.2-0.3,0.5-0.4,0.9-0.4   c0.3,0,0.5,0.1,0.8,0.3c0.2,0.2,0.3,0.4,0.3,0.8c0,0.2-0.1,0.4-0.2,0.5C6,25,5.8,25.1,5.7,25.1c-0.2,0.1-0.3,0.1-0.5,0.1   S4.8,25.3,4.6,25.3z M6,2v8H4V5H2V4c1.1,0,2-0.9,2-2H6z" class="Red" />
  </g>
</svg>