<?xml version="1.0" standalone="no"?>
<!DOCTYPE svg PUBLIC "-//W3C//DTD SVG 20010904//EN"
 "http://www.w3.org/TR/2001/REC-SVG-20010904/DTD/svg10.dtd">
<svg version="1.0" xmlns="http://www.w3.org/2000/svg"
 width="288.000000pt" height="288.000000pt" viewBox="0 0 288.000000 288.000000"
 preserveAspectRatio="xMidYMid meet">
<metadata>
Created by potrace 1.10, written by Peter Selinger 2001-2011
</metadata>
<g transform="translate(0.000000,288.000000) scale(0.100000,-0.100000)"
fill="#000000" stroke="none">
<path d="M375 2488 c-58 -30 -94 -66 -121 -123 l-24 -50 0 -766 c0 -748 0
-768 20 -812 26 -58 69 -101 127 -127 38 -16 67 -20 168 -20 168 0 165 4 165
-196 l0 -149 30 -36 c31 -39 70 -52 120 -42 22 4 83 58 220 194 105 103 203
197 219 208 29 21 40 21 584 21 527 0 557 1 598 19 52 23 99 70 128 128 21 42
21 49 21 812 0 704 -1 774 -17 808 -24 54 -81 111 -132 134 -42 18 -75 19
-1055 19 -1002 -1 -1011 -1 -1051 -22z m1257 -618 c38 -40 38 -42 38 -120 0
-52 4 -80 11 -80 6 0 28 14 49 30 21 17 41 30 44 30 4 0 12 5 19 10 25 23 144
106 170 119 24 13 29 12 47 -4 19 -17 20 -30 20 -305 0 -275 -1 -288 -20 -305
-18 -16 -23 -17 -47 -4 -26 13 -145 96 -170 119 -7 5 -15 10 -19 10 -3 0 -23
14 -44 30 -21 17 -43 30 -49 30 -7 0 -11 -28 -11 -80 0 -80 0 -80 -40 -120
l-40 -40 -340 0 -339 0 -41 38 -40 39 0 281 0 282 40 40 40 40 342 0 341 0 39
-40z"/>
</g>
</svg>
