<svg width="19.2px" height="19.2px" viewBox="0 0 19.2 19.2" data-name="Instagram w/circle" xmlns="http://www.w3.org/2000/svg"><path d="M13.498 6.651a1.656 1.656 0 0 0-.95-.949 2.766 2.766 0 0 0-.928-.172c-.527-.024-.685-.03-2.02-.03s-1.493.006-2.02.03a2.766 2.766 0 0 0-.929.172 1.656 1.656 0 0 0-.949.95 2.766 2.766 0 0 0-.172.928c-.024.527-.03.685-.03 2.02s.006 1.493.03 2.02a2.766 2.766 0 0 0 .172.929 1.656 1.656 0 0 0 .95.949 2.766 2.766 0 0 0 .928.172c.527.024.685.029 2.02.029s1.493-.005 2.02-.03a2.766 2.766 0 0 0 .929-.171 1.656 1.656 0 0 0 .949-.95 2.766 2.766 0 0 0 .172-.928c.024-.527.029-.685.029-2.02s-.005-1.493-.03-2.02a2.766 2.766 0 0 0-.171-.929zM9.6 12.168A2.568 2.568 0 1 1 12.168 9.6 2.568 2.568 0 0 1 9.6 12.168zm2.669-4.637a.6.6 0 1 1 .6-.6.6.6 0 0 1-.6.6zM11.267 9.6A1.667 1.667 0 1 1 9.6 7.933 1.667 1.667 0 0 1 11.267 9.6zM9.6 0a9.6 9.6 0 1 0 9.6 9.6A9.6 9.6 0 0 0 9.6 0zm4.97 11.661a3.67 3.67 0 0 1-.233 1.214 2.556 2.556 0 0 1-1.462 1.462 3.67 3.67 0 0 1-1.213.233c-.534.024-.704.03-2.062.03s-1.528-.006-2.062-.03a3.67 3.67 0 0 1-1.213-.233 2.556 2.556 0 0 1-1.462-1.462 3.67 3.67 0 0 1-.233-1.213c-.024-.534-.03-.704-.03-2.062s.006-1.528.03-2.062a3.67 3.67 0 0 1 .232-1.213 2.556 2.556 0 0 1 1.463-1.463 3.67 3.67 0 0 1 1.213-.232c.534-.024.704-.03 2.062-.03s1.528.006 2.062.03a3.67 3.67 0 0 1 1.213.232 2.556 2.556 0 0 1 1.462 1.463 3.67 3.67 0 0 1 .233 1.213c.024.534.03.704.03 2.062s-.006 1.528-.03 2.062z"/></svg>