<?xml version="1.0" encoding="iso-8859-1"?>
<!-- Generator: Adobe Illustrator 16.0.0, SVG Export Plug-In . SVG Version: 6.00 Build 0)  -->
<!DOCTYPE svg PUBLIC "-//W3C//DTD SVG 1.1//EN" "http://www.w3.org/Graphics/SVG/1.1/DTD/svg11.dtd">
<svg version="1.1" id="Capa_1" xmlns="http://www.w3.org/2000/svg" xmlns:xlink="http://www.w3.org/1999/xlink" x="0px" y="0px"
	 width="186.132px" height="186.131px" viewBox="0 0 186.132 186.131" style="enable-background:new 0 0 186.132 186.131;"
	 xml:space="preserve">
<g>
	<path d="M185.686,90.353c-3.733-37.079-24.71-73.975-61.554-85.446c-25.507-7.942-56.96-4.103-79.927,9.341
		c-8.83,5.169-15.898,12.098-21.656,20.05c-4.574,4.445-8.687,9.271-11.916,14.694c-4.841,8.131-13.028,24.384-9.88,33.973
		c0.045,0.137,0.126,0.25,0.199,0.369c-2.432,9.522,0.329,21.33,2.334,29.889c4.142,17.683,14.508,34.432,27.695,46.782
		c25.091,23.5,67.6,31.33,99.717,20.593C168.249,168.045,189.535,128.585,185.686,90.353z M68.791,173.952
		c3.11,0.865,6.236,1.683,9.375,2.471c0.066,0.095,0.131,0.189,0.208,0.275C75.137,175.919,71.935,175.004,68.791,173.952z
		 M145.784,74.178c-2.183,14.464-11.447,27.872-20.419,38.977c-4.049,5.011-8.534,9.649-13.086,14.199
		c-5.272,5.27-11.084,12.013-18.978,12.635c-11.977,0.944-19.097-17.391-22.394-26.089c-2.719-7.172-4.257-14.629-6.304-21.998
		C61.95,82.352,54.376,66.612,44.169,79c-0.398-0.374-0.796-0.749-1.193-1.123c-1.091-1.027-2.178-2.134-3.327-3.141
		c8.768-12.621,35.249-39.557,45.224-15.259c5.666,13.803,3.126,30.577,9.745,44.041c6.731,13.692,20.687-9.688,21.867-16.373
		c0.899-5.092-0.611-14.055-5.654-16.92c-2.366-1.344-4.505-1.309-6.282-0.399c2.816-9.997,15.519-17.508,25.203-17.939
		C142.494,51.322,147.421,63.333,145.784,74.178z M163.429,127.794c1.144-3.367,2.49-6.647,4.068-9.757
		C166.347,121.326,164.947,124.588,163.429,127.794z"/>
</g>
<g>
</g>
<g>
</g>
<g>
</g>
<g>
</g>
<g>
</g>
<g>
</g>
<g>
</g>
<g>
</g>
<g>
</g>
<g>
</g>
<g>
</g>
<g>
</g>
<g>
</g>
<g>
</g>
<g>
</g>
</svg>
